<svg xmlns="http://www.w3.org/2000/svg" width="4.005" height="17" viewBox="1275 25 4.005 17"><path d="M1275.456 32.078A2.392 2.392 0 0 0 1275 33.5a2.457 2.457 0 0 0 .158.871 2.013 2.013 0 0 0 1.844 1.366 1.925 1.925 0 0 0 1.547-.815 2.392 2.392 0 0 0 .456-1.422 2.457 2.457 0 0 0-.157-.87 2.013 2.013 0 0 0-1.846-1.367 1.925 1.925 0 0 0-1.546.815Zm0 6.264a2.392 2.392 0 0 0-.456 1.421 2.457 2.457 0 0 0 .158.871 2.013 2.013 0 0 0 1.844 1.366 1.925 1.925 0 0 0 1.547-.815 2.392 2.392 0 0 0 .456-1.422 2.457 2.457 0 0 0-.157-.87 2.013 2.013 0 0 0-1.846-1.367 1.925 1.925 0 0 0-1.546.816Zm0-12.527a2.392 2.392 0 0 0-.456 1.422 2.457 2.457 0 0 0 .158.87 2.013 2.013 0 0 0 1.844 1.367 1.925 1.925 0 0 0 1.547-.816 2.392 2.392 0 0 0 .456-1.421 2.457 2.457 0 0 0-.157-.87 2.013 2.013 0 0 0-1.846-1.367 1.925 1.925 0 0 0-1.546.815Z" fill-rule="evenodd" data-name="Ellipse 1 copy 3"/></svg>